<svg height="24" width="26" xmlns="http://www.w3.org/2000/svg"><path d="M18.24 2.27a7.68 7.68 0 0 1 2.41.41 4 4 0 0 1 1.49.89 3.68 3.68 0 0 1 1 1.37 6.19 6.19 0 0 1 .44 2.22c.16 3.2.16 6.46 0 9.66a6.2 6.2 0 0 1-.44 2.22 3.69 3.69 0 0 1-1 1.38 4.07 4.07 0 0 1-1.49.9 7.75 7.75 0 0 1-2.41.41c-3.47.14-7 .15-10.47 0a7.75 7.75 0 0 1-2.41-.41 4 4 0 0 1-1.49-.9 3.7 3.7 0 0 1-1-1.38 6.17 6.17 0 0 1-.45-2.22c-.16-3.2-.16-6.46 0-9.66a6.19 6.19 0 0 1 .48-2.21 3.7 3.7 0 0 1 1-1.38 4.06 4.06 0 0 1 1.49-.89 7.68 7.68 0 0 1 2.41-.41c3.44-.15 6.96-.15 10.44 0zM7.66.11a10.23 10.23 0 0 0-3.15.56A6.43 6.43 0 0 0 2.22 2a5.81 5.81 0 0 0-1.5 2.17 8.22 8.22 0 0 0-.6 2.9C0 10.34 0 13.66.12 16.93a8.17 8.17 0 0 0 .6 2.9A5.84 5.84 0 0 0 2.22 22a6.44 6.44 0 0 0 2.3 1.38 10.23 10.23 0 0 0 3.14.56c3.54.15 7.14.15 10.68 0a10.22 10.22 0 0 0 3.15-.56A6.43 6.43 0 0 0 23.78 22a5.84 5.84 0 0 0 1.49-2.12 8.18 8.18 0 0 0 .6-2.9c.16-3.27.16-6.59 0-9.86a8.15 8.15 0 0 0-.6-2.9A5.81 5.81 0 0 0 23.78 2 6.43 6.43 0 0 0 21.49.67a10.17 10.17 0 0 0-3.15-.56C14.8 0 11.2 0 7.66.11zM13 5.86A6.41 6.41 0 0 0 6.35 12 6.41 6.41 0 0 0 13 18.14 6.41 6.41 0 0 0 19.65 12 6.41 6.41 0 0 0 13 5.86zM13 16a4.16 4.16 0 0 1-4.32-4A4.16 4.16 0 0 1 13 8a4.16 4.16 0 0 1 4.32 4A4.16 4.16 0 0 1 13 16zm8.47-10.38a1.56 1.56 0 0 1-3.11 0 1.56 1.56 0 0 1 3.11 0z" fill="#bdbdbd"/></svg>