<svg height="25.34" width="127" xmlns="http://www.w3.org/2000/svg"><radialGradient id="a" cx="11.55" cy="-108.26" gradientTransform="matrix(1 0 0 -1 2.5 -96)" gradientUnits="userSpaceOnUse" r="15.15"><stop offset="0" stop-color="#52a347"/><stop offset=".5" stop-color="#83b03e"/><stop offset=".71" stop-color="#2ea64c"/><stop offset=".93" stop-color="#264122"/></radialGradient><radialGradient id="b" cx="11.55" cy="-108.26" gradientTransform="matrix(1 0 0 -1 2.5 -96)" gradientUnits="userSpaceOnUse" r="15.15"><stop offset="0" stop-color="#52a347"/><stop offset=".5" stop-color="#83b03e"/><stop offset=".71" stop-color="#2b9940"/><stop offset=".93" stop-color="#264122"/></radialGradient><path d="M123 3.69h3a12.69 12.69 0 0 0-2.17 1.72l-3 3.07 1.65 2.36a43.66 43.66 0 0 0 4.52 5.63h-4.3a24.15 24.15 0 0 0-2.1-3.82l-1.94-2.91 1.68-2.14A23.19 23.19 0 0 0 123 3.69zm-4.56 1.42v9.9l.13.74a1 1 0 0 0 .58.32v.4H115v-.39l.58-.32a1.46 1.46 0 0 0 .13-.74V5.11l-.13-.71a.75.75 0 0 0-.58-.29v-.42h4.17v.42a.75.75 0 0 0-.58.29zm-6.21 0v9.9l.13.74.58.32v.4h-4.21v-.39a1.5 1.5 0 0 0 .65-.32l.1-.74V9.87h-4.92v5.15l.13.74a1 1 0 0 0 .58.32v.39H101v-.39a1.1 1.1 0 0 0 .65-.32l.13-.74V5.11l-.13-.71a.83.83 0 0 0-.65-.29v-.42h4.24v.42a.75.75 0 0 0-.58.29l-.13.71v3.92h4.92V5.11l-.1-.71a1 1 0 0 0-.65-.29v-.42h4.21v.42a.75.75 0 0 0-.58.29zM127 20.94H33.34v-1.26H127zM91.85 4.11v-.42h3.69A6.57 6.57 0 0 0 96 5.57l2.71 7.6a24.7 24.7 0 0 0 1.29 3.3h-3.2l-1.39-4.6H91.3l-.87 3-.26 1.6h-2.33L92 6.89a7 7 0 0 0 .61-2.07.7.7 0 0 0-.76-.71zm1.52 1.72-1.74 5.14h3.5zm-6.54.65h-.71L86 5.92a1.91 1.91 0 0 0-.78-1.23l-1.82-.22h-1.71a1.12 1.12 0 0 0-.78.19.82.82 0 0 0-.16.58v3h.71a10.42 10.42 0 0 1 4.3.61 3.32 3.32 0 0 1 1.72 3.32 4 4 0 0 1-1.36 3.43 6.53 6.53 0 0 1-3.72.84h-5.11v-.36l.61-.32.1-.74V5.11l-.1-.71a.79.79 0 0 0-.61-.29v-.42h9.55v2.78zm-6.08 2.61v5.47a1.12 1.12 0 0 0 .23.84 1.27 1.27 0 0 0 .91.26h.39a2.05 2.05 0 0 0 1.81-.84 4.62 4.62 0 0 0 .52-2.49 4 4 0 0 0-.55-2.39 2.46 2.46 0 0 0-2.17-.84h-1.14zm-4.6-1.75a3.66 3.66 0 0 1-1.36 3.2 6.24 6.24 0 0 1-3.62.84h-1.29V15l.12.76a.93.93 0 0 0 .61.32v.39h-4.2v-.39l.59-.32.13-.74V5.11L67 4.4a.75.75 0 0 0-.58-.29v-.42h5.31a6 6 0 0 1 3.17.65 3.35 3.35 0 0 1 1.26 3.01zm-6.08-2.75a.67.67 0 0 0-.19.58v5.41h1.29a1.75 1.75 0 0 0 1.68-.91 5.53 5.53 0 0 0 .42-2.5q0-2.75-2.3-2.75h-.32zm-5.6 1.88h-.68l-.16-.55a2.22 2.22 0 0 0-.81-1.23l-1.75-.22h-1.42l-.52.13-.13.48v3.95h1.68A4.48 4.48 0 0 0 63 8.64v1.62a4.47 4.47 0 0 0-2.3-.39H59v4.79a.86.86 0 0 0 .39.81l1.61.19h.36l1.75-.26a2.27 2.27 0 0 0 .71-1.42l.18-.48h.81v3h-9.27v-.42a1.06 1.06 0 0 0 .62-.32l.13-.74V5.11l-.13-.71a.79.79 0 0 0-.62-.29v-.42h8.93zm-11 0h-.71l-.16-.55a2 2 0 0 0-.81-1.23l-1.72-.22h-1.78a1.2 1.2 0 0 0-.78.19 1.22 1.22 0 0 0-.1.58v3h.71a10.56 10.56 0 0 1 4.3.61 3.33 3.33 0 0 1 1.69 3.32 4 4 0 0 1-1.36 3.43 6.45 6.45 0 0 1-3.75.87h-5.11v-.39a1.1 1.1 0 0 0 .65-.32l.13-.74V5.11l-.13-.71a.83.83 0 0 0-.65-.29v-.42h9.55v2.78zM40.55 4.72a3.12 3.12 0 0 0-1.81-.42A2.9 2.9 0 0 0 36 5.73a8.77 8.77 0 0 0-.68 4 8.71 8.71 0 0 0 .74 4.11 3.25 3.25 0 0 0 3.11 1.65 7.22 7.22 0 0 0 3.2-.78l.39.81a8.13 8.13 0 0 1-4.34 1.13q-6.09 0-6.08-6.44 0-6.76 6.31-6.76a9.37 9.37 0 0 1 3.72.58V6.7h-.81l-.23-.78a2.33 2.33 0 0 0-.78-1.2zm6.86 4.37v5.47a1.25 1.25 0 0 0 .19.84 1.32 1.32 0 0 0 .94.26h.36q2.33 0 2.33-3.33a4 4 0 0 0-.55-2.39 2.55 2.55 0 0 0-2.2-.84h-1.07z" fill="#006236"/><path d="m21.2 1.48 1.13 1L8 10.74l-6.93-4 .68-1.31L8 9zM18.32-.17l1.52.78L8 7.4 2.52 4.26l.94-1.13L8 5.75zm5 3.75.84 1.13L8 14 .23 9.54l.35-1.43L8 12.39z" fill="url('#a')" transform="translate(0 .17)"/><path d="M25.67 7.76a12.5 12.5 0 0 1 .71 4.24 13.05 13.05 0 0 1-.71 4.27l-.32.87a13.46 13.46 0 0 1-2.82 4.21 13 13 0 0 1-4.21 2.78 12.93 12.93 0 0 1-5.15 1.07A12.8 12.8 0 0 1 8 24.1a13.61 13.61 0 0 1-4.17-2.78A12.77 12.77 0 0 1 1 17.11 13.29 13.29 0 0 1 0 12v-.91l8 4.56 17-9.7z" fill="url('#b')" transform="translate(0 .17)"/></svg>