<svg height="34.74" width="78" xmlns="http://www.w3.org/2000/svg"><path d="M47.29 6.94h-8.81v.81a8.14 8.14 0 0 1 1 .16 1.69 1.69 0 0 1 .75.34c.52.44.52 1.3.52 2.81v10.21c0 2.08.18 5-2.76 5a3.18 3.18 0 0 1-3-2.55h-1c.42 2.76 1.9 4.63 5.46 4.63 3 0 5.72-1.4 5.72-6.11V11c0-1.53 0-2.31.52-2.78a2.34 2.34 0 0 1 1.53-.52V7zM57.43 6.94h-8.81v.81a2.21 2.21 0 0 1 1.53.52 2.42 2.42 0 0 1 .49 2v14.2c0 1-.08 1.61-.49 2a2.34 2.34 0 0 1-1.53.52v.81h13.31l1.4-4.08h-1a3.9 3.9 0 0 1-4.06 2.5 4.9 4.9 0 0 1-2.52-.42c-.44-.29-.6-1-.62-2.34V11c0-1.53 0-2.37.52-2.81a3.28 3.28 0 0 1 1.82-.47v-.83z"/><path d="M72.1 6.94h-8.82v.81a2.21 2.21 0 0 1 1.53.52 2.42 2.42 0 0 1 .49 2v14.2c0 1-.08 1.61-.49 2a2.34 2.34 0 0 1-1.53.52v.81H76.6l1.4-4.14h-1a3.9 3.9 0 0 1-4.06 2.5 4.9 4.9 0 0 1-2.52-.42c-.44-.29-.6-1-.62-2.34V11c0-1.53 0-2.37.52-2.81a3.28 3.28 0 0 1 1.82-.47v-.78z"/><g fill="#e30613"><path d="M12.95 34.06a7.81 7.81 0 0 0 1.2-.68l.23-.16a8 8 0 0 0 1.3-1.2 14.24 14.24 0 0 0 1.43-1.82 15.71 15.71 0 0 0 .89-1.57 23.42 23.42 0 0 0 2.13-6.79 29.35 29.35 0 0 0 .34-4.5 29.35 29.35 0 0 0-.34-4.5A22.42 22.42 0 0 0 18 6.06l-.39-.73a20.05 20.05 0 0 0-1.41 3.33 26.21 26.21 0 0 1 1.27 6.47c.05.73.08 1.51.08 2.24 0 .73 0 1.51-.08 2.24a24.79 24.79 0 0 1-1.77 7.85 16.55 16.55 0 0 1-1.43 2.78c-.13.21-.23.42-.39.62-.29.42-.57.81-.88 1.22a13.88 13.88 0 0 1-1.2 1.3 10.56 10.56 0 0 1-1.43 1.2l-.13.08v.05a7 7 0 0 0 2.71-.65z"/><path d="M18.36 34.06a7.81 7.81 0 0 0 1.2-.68l.23-.16a12.89 12.89 0 0 0 3.64-4.55 23.42 23.42 0 0 0 2.13-6.79 29.35 29.35 0 0 0 .34-4.5 29.35 29.35 0 0 0-.34-4.5 22.42 22.42 0 0 0-2.13-6.79 13.28 13.28 0 0 0-3.3-4.29 14.57 14.57 0 0 0-1.25 1.53l.39.57a22.76 22.76 0 0 1 3.59 11.26c.05.73.08 1.51.08 2.24s0 1.51-.08 2.24a22.68 22.68 0 0 1-3.59 11.26c-.29.42-.57.81-.88 1.22a13.88 13.88 0 0 1-1.2 1.3 10.56 10.56 0 0 1-1.43 1.2l-.13.08v.05a7.4 7.4 0 0 0 2.73-.69z"/><path d="M25.22 33.2a12.89 12.89 0 0 0 3.64-4.55A23.42 23.42 0 0 0 31 21.87a29.35 29.35 0 0 0 .34-4.5 29.35 29.35 0 0 0-.34-4.5 22.42 22.42 0 0 0-2.13-6.79 12.72 12.72 0 0 0-3.64-4.55A7 7 0 0 0 21.09 0v.05a13.59 13.59 0 0 1 3.59 3.82 22.76 22.76 0 0 1 3.59 11.26c.05.73.08 1.51.08 2.24s0 1.51-.08 2.24a22.68 22.68 0 0 1-3.59 11.26 14.85 14.85 0 0 1-3.61 3.82v.05a7.42 7.42 0 0 0 4.15-1.54zM18.36.65a7.81 7.81 0 0 0-1.2.68l-.23.16a10.78 10.78 0 0 0-1.3 1.17 14.24 14.24 0 0 0-1.43 1.81 15.71 15.71 0 0 0-.91 1.59 23.42 23.42 0 0 0-2.13 6.79 29.35 29.35 0 0 0-.34 4.5 29.35 29.35 0 0 0 .34 4.5 22.42 22.42 0 0 0 2.13 6.79l.39.73A20.05 20.05 0 0 0 15.11 26a26.21 26.21 0 0 1-1.27-6.47c-.05-.73-.08-1.51-.08-2.24 0-.73 0-1.51.08-2.24a24.79 24.79 0 0 1 1.76-7.82 20.28 20.28 0 0 1 1.46-2.78c.13-.21.23-.42.39-.62.28-.42.55-.83.88-1.23a13.88 13.88 0 0 1 1.2-1.3A10.56 10.56 0 0 1 21 .1l.09-.1a7.24 7.24 0 0 0-2.73.65z"/><path d="M12.95.65a7.81 7.81 0 0 0-1.2.68l-.23.16A13.49 13.49 0 0 0 7.88 6a23.42 23.42 0 0 0-2.13 6.79 29.69 29.69 0 0 0-.34 4.52 29.35 29.35 0 0 0 .34 4.5 22.42 22.42 0 0 0 2.13 6.79 13.28 13.28 0 0 0 3.3 4.29 14.57 14.57 0 0 0 1.25-1.53l-.43-.52a22.76 22.76 0 0 1-3.55-11.26c-.05-.73-.08-1.51-.08-2.24s0-1.51.08-2.24A22.68 22.68 0 0 1 12 3.85c.29-.42.57-.81.88-1.22a13.88 13.88 0 0 1 1.2-1.3A11.73 11.73 0 0 1 15.52.18l.13-.08V0a7.11 7.11 0 0 0-2.7.65z"/><path d="M6.11 1.51a12.89 12.89 0 0 0-3.64 4.55 23.42 23.42 0 0 0-2.13 6.78A29.69 29.69 0 0 0 0 17.37a29.35 29.35 0 0 0 .34 4.5 22.42 22.42 0 0 0 2.13 6.79 12.72 12.72 0 0 0 3.64 4.54 7.71 7.71 0 0 0 4.13 1.51v-.05a13.68 13.68 0 0 1-3.61-3.82A22.76 22.76 0 0 1 3 19.58v-2.24c0-.73 0-1.51.08-2.24A22.68 22.68 0 0 1 6.63 3.85a13.57 13.57 0 0 1 3.61-3.8V0a7.06 7.06 0 0 0-4.13 1.51zM16.61 32.94a14.57 14.57 0 0 0 1.25-1.53l-.39-.55-.39-.62a11.9 11.9 0 0 1-1.43 1.82c.29.31.65.6 1 .88M19.55 33.38a7.53 7.53 0 0 1-1.2.68 7 7 0 0 0 2.7.65v-.05a11.52 11.52 0 0 1-1.51-1.27M15.16 34.68a2.56 2.56 0 0 1 .44-.05l-.44-.31a11.23 11.23 0 0 1-1-.88 7.53 7.53 0 0 1-1.2.68 7 7 0 0 0 1.77.55 1.27 1.27 0 0 1 .44 0m.49 0v-.01l-.08-.05a2.56 2.56 0 0 1-.44.05 1.86 1.86 0 0 0 .52.05zM14.72 1.79a14.57 14.57 0 0 0-1.25 1.53l.39.55.39.63a11.9 11.9 0 0 1 1.43-1.82 7.59 7.59 0 0 0-1-.88M11.75 1.35a7.53 7.53 0 0 1 1.2-.68A6.59 6.59 0 0 0 10.24 0v.05a8.87 8.87 0 0 1 1.51 1.3M18.36.65A7 7 0 0 0 16.59.1a2.56 2.56 0 0 0-.44-.05 2.88 2.88 0 0 0-.5-.05v.05l.08.05.44.31a11.23 11.23 0 0 1 1 .88 13.14 13.14 0 0 1 1.19-.64"/></g></svg>