<svg height="37" width="36.38" xmlns="http://www.w3.org/2000/svg"><path d="M11.17 30.87v3.46a1.3 1.3 0 0 1-1.37 1.5 1.32 1.32 0 0 1-1.38-1.55v-3.41H7.19v3.45A2.4 2.4 0 0 0 9.78 37a2.43 2.43 0 0 0 2.61-2.72v-3.41zm4.51 0-2.66 6h1.25l.51-1.17v-.09h2.76l.54 1.26h1.28l-2.64-6zm7.29 0L21.59 35l-1.33-4.15H19l2.1 6h1l1.37-4 1.37 4h1l2.1-6h-1.27L25.33 35 24 30.87h-1zm12 0v6h1.21v-6H35zm-34.68 0v6H1.5v-2.41h2.77v2.45h1.22v-6H4.27v2.44H1.5v-2.48H.27zm28.66 0v6h4.56V35.8h-3.37v-1.5h2.23v-1.1h-2.23V32h3.24v-1.1h-4.45zM16.2 32.4l.87 2 .06.14h-1.86l.06-.14z" fill="#232527"/><path d="M15.54 0c-.49 0-1.8.34-1.8.34a5.13 5.13 0 0 0-3.89 4.8v.6a7.3 7.3 0 0 0 .24 1.6c1 4.39 5.85 11.59 6.9 13.11a.13.13 0 0 0 .13 0 .14.14 0 0 0 .1-.14C18.83 4.26 15.54 0 15.54 0zm5.32 0s-3.31 4.27-1.7 20.37a.14.14 0 0 0 .08.12.13.13 0 0 0 .16-.06c1.07-1.55 5.91-8.72 6.89-13.09a7.41 7.41 0 0 0 0-3.55A5.19 5.19 0 0 0 22.62.34S21.76.13 20.85 0zM5.57 4.83s-2.82 2.68-3 5.52v.53a5.35 5.35 0 0 0 1.84 3.64c2.77 2.7 9.49 6.12 11.05 6.89a.13.13 0 0 0 .15 0 .12.12 0 0 0 0-.05v-.1A83.14 83.14 0 0 0 5.57 4.83zm25.24 0a83.1 83.1 0 0 0-10.1 16.38.16.16 0 0 0 0 .18h.15c1.6-.8 8.27-4.19 11-6.88a5.38 5.38 0 0 0 1.84-3.66c.2-3.13-3-6-3-6zm5.25 9.27s-9.51 5.1-14.42 8.42a.15.15 0 0 0-.06.16.16.16 0 0 0 .11.08h8.59a6.7 6.7 0 0 0 1.93-.44 6.56 6.56 0 0 0 3.6-3.44 6.68 6.68 0 0 0 .57-2.71v-.08a6.42 6.42 0 0 0-.32-2zm-35.74 0a6.62 6.62 0 0 0 3.83 8.18 6.84 6.84 0 0 0 2.14.47h8.39a.15.15 0 0 0 .11-.07v-.08a.19.19 0 0 0-.05-.08C9.84 19.21.32 14.13.32 14.13zm14.16 9.47L3.3 24c1.21 2.16 3.26 3.84 5.38 3.33 1.47-.37 4.79-2.69 5.89-3.47a.12.12 0 0 0 .05-.14.15.15 0 0 0-.14-.1zm7.41 0a.16.16 0 0 0-.13.09.16.16 0 0 0 0 .15c1.07.77 4.32 3 5.88 3.48a2.43 2.43 0 0 0 .63.09h.24c1 0 2.87-.57 4.53-3.42z" fill="#cf0a2c"/></svg>