<svg height="25.34" width="111.5" xmlns="http://www.w3.org/2000/svg"><g fill="#1dbadf"><path d="M40.6 4.67h7.77v1.72h-.62c-.12-1.09-1.28-.87-2.43-.87v7.91h-1.8V5.51c-1.18 0-2.22-.22-2.36.87h-.56zm24-.22a3.84 3.84 0 0 0-2.8 1.11v-.89h-2.73v.49a1.06 1.06 0 0 1 .88 1.11v11.11h2.74v-.51a1.06 1.06 0 0 1-.87-1.12v-3.39a3.3 3.3 0 0 0 2.62 1.07c3 0 4-2.87 3.94-4.65 0-2.71-1.87-4.35-3.76-4.36zm-.56 8.22a2.84 2.84 0 0 1-2.22-1.28V6.67a2.7 2.7 0 0 1 2.37-1.4c3 0 3 7.52-.15 7.35zm18.58-8h7.76v1.72h-.57c-.12-1.09-1.28-.87-2.43-.87v7.91h-1.84V5.51c-1.18 0-2.22-.22-2.36.87h-.56zm16.73 0h1.45v8.78h-1.88V7.29l-4.54 6.13h-1.46V6.27a1.06 1.06 0 0 0-.87-1.12v-.48h2.77v6.19zm-41.5 8.19v.59h-2.38l-1.72-3.61a1.4 1.4 0 0 0-1.68-1v4.55h-1.88V2.49a1.06 1.06 0 0 0-.87-1.12V.86h2.77v7.12a1.51 1.51 0 0 0 1.77-.79c.43-.76 1.43-2.52 1.43-2.52h2l-2.23 3.78 1.81 3.54a1.3 1.3 0 0 0 1 .85zm23.07-8.19h-2.76v.49a1.06 1.06 0 0 1 .87 1.12v7.15h1.88V4.67zM75 8h-2.48V4.67h-2.77v.49a1.06 1.06 0 0 1 .87 1.12v7.15h4.36a2.71 2.71 0 0 0 0-5.42zm-1.25 4.79h-1.23V8.67h1.23a2.05 2.05 0 0 1 0 4.1zm37.28-1.78a4.48 4.48 0 1 1-3.92-6.64 4.44 4.44 0 0 1 4.41 4.52h-6.65v1.44a2.25 2.25 0 0 0 2.24 2.26 3.57 3.57 0 0 0 3.1-1.92l.81.31zm-6.16-3.5v.48h4.48v-.48a2.24 2.24 0 1 0-4.48 0zM32.93.92c2.53 0 3.69 2.64 3.69 4v4.22a3.92 3.92 0 0 1-3.69 3.65 3.92 3.92 0 0 1-3.68-3.65V4.91c0-1.36 1.15-4 3.69-4zm0-.92c-3.28 0-6.08 2.83-6.08 5.47v2.85c0 2.54 2.71 5.5 6.08 5.5s6.08-2.87 6.08-5.5V5.47C39.01 2.93 36.3 0 32.93 0zM29.88 17.61v2.06h1.29a2.76 2.76 0 0 1 1.65 5.11c-.88.48-2.82.34-4 .34a.29.29 0 0 1-.32-.32v-8.13a.29.29 0 0 1 .32-.32h4.37c.54 0 .26.53.12 1a.34.34 0 0 1-.36.27h-3.07zm8.87 3.41c0-.68 0-1.26-.89-1.26-1.15 0-1.64.71-1.85.24s-.37-.81.16-1c1.45-.63 3.87-.71 3.87 1.52a18.85 18.85 0 0 0 .14 3.71c.27.59.57.44-.43 1.04-.39.23-.63-.36-.74-.65-1.44 1.34-3.55.75-3.55-1.24s1.77-2.33 3.31-2.36zm4.88 1.41v2.41c0 .42-.45.32-1 .32a.29.29 0 0 1-.32-.32v-5.76c0-.35.38-.35.9-.48a.28.28 0 0 1 .4.26v2.45h2.14v-2.23c0-.36.35-.34.9-.48a.28.28 0 0 1 .4.26v6c0 .42-.45.32-1 .32a.29.29 0 0 1-.3-.35v-2.4h-2.1zm6.78-1.14c.95 0 .86 0 1.16-1.21a1.63 1.63 0 0 1 1.64-1.49c.36 0 .35.34.46.79s-.58.27-.76.52-.16 1.43-.86 1.88c.8.48.79 2 1.12 2.25s.88 0 .72.51-.13.79-.5.79c-1.53 0-1.54-.9-2-2.38-.17-.62-.36-.55-1-.55v2.48c0 .36-.55.27-1 .27a.28.28 0 0 1-.31-.27v-5.8c0-.36.41-.36.9-.48a.28.28 0 0 1 .4.26v2.42zm-20.53 2.64c1.22 0 2.75.24 2.75-1.51s-1.56-1.5-2.75-1.5v3zm8.87-.4v-1.39c-2.8 0-2.2 2.08-1.27 2.08a2.12 2.12 0 0 0 1.27-.69z" fill-rule="evenodd"/><circle cx="10.91" cy="12.63" r="10.91"/></g><path d="m7.75 5.67-.53.24a6.89 6.89 0 0 0-3.7 6.18v1.11a6.9 6.9 0 0 0 3.73 6.17l.5.24A1 1 0 0 0 9 19.35a.89.89 0 0 0 .13-.68.87.87 0 0 0-.44-.56 3.85 3.85 0 0 1-2.29-3.53v-3.91a3.86 3.86 0 0 1 2.29-3.53.85.85 0 0 0 .43-.56.88.88 0 0 0-.11-.67 1 1 0 0 0-1.26-.24zm5 .26a.87.87 0 0 0-.11.67.85.85 0 0 0 .44.57 3.85 3.85 0 0 1 2.34 3.5v3.91a3.85 3.85 0 0 1-2.29 3.53.86.86 0 0 0-.43.56.88.88 0 0 0 .11.68 1 1 0 0 0 1.25.26l.53-.24a6.9 6.9 0 0 0 3.7-6.19v-1.1a6.9 6.9 0 0 0-3.71-6.19l-.53-.22a1 1 0 0 0-1.25.24z" fill="#fff" fill-rule="evenodd"/></svg>