<svg height="43.1" width="163.1" xmlns="http://www.w3.org/2000/svg"><path d="M8.7 23.4c-4.5 0-7.8 2-8.1 6.2h5v-.1a2.6 2.6 0 0 1 2.8-2.3c1.9 0 2.8 1.1 2.8 3v.9H8.9C4 31.1 0 32.6 0 37.3v.2C0 41.3 2.8 43 6.2 43a6.1 6.1 0 0 0 5.2-2.5v2.2h5.1V30.1c-.1-4.8-3.4-6.7-7.8-6.7zM7.6 39.3c-1.8 0-2.6-.9-2.6-2.2v-.2c0-1.7 1.3-2.4 3.9-2.4H11v1.8c.1 2-1.6 3-3.4 3zm20.9-.2c-2.5 0-3.8-1.7-3.8-5.5V33c0-3.7 1.5-5.5 3.8-5.5 1.8 0 2.8 1.2 3.1 3h5c-.4-4.9-4-7.1-8.2-7.1-5 0-9 3.4-9 9.8v.2c0 6.4 3.8 9.6 9 9.6 5.1 0 8-3.1 8.4-7.3H32c-.4 2.1-1.7 3.4-3.5 3.4zm19.5 0c-2.5 0-3.8-1.7-3.8-5.5V33c0-3.7 1.5-5.5 3.8-5.5 1.8 0 2.8 1.2 3.1 3h5c-.4-4.9-4-7.1-8.2-7.1-5 0-9 3.4-9 9.8v.2c0 6.4 3.8 9.6 9 9.6 5.1 0 8-3.1 8.3-7.3h-4.7a3.6 3.6 0 0 1-3.5 3.4zm19.7.1c-2.3 0-3.7-1.3-3.9-4.7H76v-2.2c0-6.2-3.9-8.9-8.6-8.9-5.1 0-9 3.5-9 9.8v.4c0 6.3 3.7 9.5 9.1 9.5 4.9 0 7.9-2.7 8.4-6.3H71a3 3 0 0 1-3.3 2.4zM67.4 27c2.1 0 3.4 1.2 3.5 4h-7c.4-3 1.9-3.9 3.5-4z"/><path d="M63.9 31h-.1z" fill="#008fff"/><path d="M90.2 23.4a6 6 0 0 0-5.7 3.2v-2.9h-5.2v18.9h5.2v-12a3.2 3.2 0 0 1 3.3-3c1.9 0 2.8 1 2.8 3.1v11.8h5.3V30c0-4.6-2.3-6.6-5.7-6.6zm15.5 13.1v-8.9h3.6v-3.9h-3.6v-5.6l-5.2 2.1v3.6h-2.3v3.8h2.2v9.5c0 3.8 1.9 5.7 6 5.7a10.3 10.3 0 0 0 3-.3v-4.1a5.7 5.7 0 0 1-1.8.3 1.8 1.8 0 0 1-1.9-2.2zm18.1-1v.5a3.2 3.2 0 0 1-3.3 3c-1.9 0-2.7-1-2.7-3.2v-12h-5.3v12.7c0 4.4 2.5 6.5 5.9 6.5a5.9 5.9 0 0 0 5.5-3.2v2.8h5.3V23.7h-5.3zm14.4-8.3v-3.5H133v18.8h5.2v-9.7c0-3.1 2.1-4.2 5.7-4.2v-5.2a6 6 0 0 0-5.7 3.8zm24.9 5c0-6.2-3.9-8.8-8.6-8.8-5.1 0-9 3.5-9 9.8v.4c0 6.3 3.7 9.5 9.1 9.5 4.9 0 7.8-2.7 8.4-6.3h-4.9a3.4 3.4 0 0 1-3.5 2.5c-2.3 0-3.7-1.3-3.9-4.7h12.2v-2.4zM150.9 31c.4-3.1 1.9-4 3.6-4 2.1 0 3.4 1.2 3.5 4z"/><path d="m95 4.8 9.4 3.7L95 12v5l16.1-6.5v-4L95 0z" fill="#008fff"/></svg>