<svg height="33.32" viewBox="0 0 57.6 33.32" width="57.6" xmlns="http://www.w3.org/2000/svg"><path d="m4.06 28.91h-1.79v-2.41h-2.07v6.5h2.1v-2.3h1.8v2.3h2.1v-6.5h-2.1v2.42zm19.41 0h-1.8v-2.41h-2.1v6.5h2.1v-2.3h1.79v2.3h2.1v-6.5h-2.1v2.42zm31.91-.51h-1v-1.9h-2.1v6.5h3.08c1.36 0 2.45-.74 2.45-2.07v-.46c0-1.32-1.09-2.07-2.42-2.07m-.23 3h-.79v-1.4h.7a.7.7 0 0 1 .08 1.4m-13.25-.85h2.34v-1.55h-2.34v-.79h2.57v-1.67h-4.68v6.46h4.83v-1.67h-2.72zm-2.57-4.05h-2.26l-1.07 2.5h-.53v-2.5h-2.1v6.5h2.1v-2.3h.53l1.1 2.3h2.42l-1.75-3.27zm-29-.08h-1a2.37 2.37 0 0 0 -2.45 2.45v1.83a2.35 2.35 0 0 0 2.45 2.45h1a2.37 2.37 0 0 0 2.45-2.45v-1.83a2.29 2.29 0 0 0 -2.45-2.45m.39 4.4a.78.78 0 0 1 -.78.78h-.19a.78.78 0 0 1 -.75-.78v-2.1a.78.78 0 0 1 .78-.78h.16a.78.78 0 0 1 .78.78zm35.5-.82c0 1-.27 1.13-.62 1.29a2 2 0 0 1 -.58.08v1.63h.82c1.75 0 2.42-1 2.42-3.31v-1.44h1.17v4.75h2.1v-6.5h-5.27v3.5zm-29.61-3.5h-3.08v6.5h2.1v-1.6h1c1.36 0 2.45-.74 2.45-2.07v-.73a2.23 2.23 0 0 0 -2.49-2.1m.41 2.65a.67.67 0 0 1 -.74.7h-.7v-1.72h.78a.64.64 0 0 1 .62.66v.35zm11.42.66v-3.27h-2v6.46h1.88l2.14-3.27v3.27h2v-6.5h-1.84l-2.14 3.31z" fill="#636362" transform="translate(-.2 .16)"/><path d="m23.44 12.9 9.74 6.58v-12.9l-9.74-6.58z" fill="#06599d"/><path d="m13.9 9.58a9.75 9.75 0 0 0 9.74 9.74v-19.48a9.75 9.75 0 0 0 -9.74 9.74m19.49-9.74v19.48a9.74 9.74 0 1 0 0-19.48" fill="#0f80c3" transform="translate(-.2 .16)"/></svg>