<svg height="31.27mm" viewBox="0 0 218.27 88.65" width="77mm" xmlns="http://www.w3.org/2000/svg"><path d="m218.24 88.65h-218.24v-88.65h218.27v88.65z" fill="#0058a3"/><path d="m4.25 44.32c0 21.43 43.95 39.22 104.88 39.22s104.87-17.79 104.87-39.22-44-39.22-104.87-39.22-104.88 17.8-104.88 39.22z" fill="#ffdb00"/><path d="m73.79 27.28a5.83 5.83 0 0 0 -.47 2.78v11.73s6.29-8.16 7.73-10.1c1.09-1.44 2.44-3.47 2.44-4.41h20.51a22.34 22.34 0 0 0 -4.25 4.19l-7.51 9.16 10.7 16.27a17.93 17.93 0 0 0 2.31 2.78h-23.61a10.79 10.79 0 0 0 -1.91-4.35c-1-1.5-6.41-9.73-6.41-9.73v11.3a5.83 5.83 0 0 0 .47 2.78h-19.68a5.83 5.83 0 0 0 .47-2.78v-26.84a5.83 5.83 0 0 0 -.47-2.78zm72.85 0h-38a5.83 5.83 0 0 1 .47 2.78v26.84a5.83 5.83 0 0 1 -.47 2.78h38v-9a5.83 5.83 0 0 1 -2.78.47h-16v-4.23h15.36v-6.85h-15.35v-4.29h16a6.2 6.2 0 0 1 2.78.44v-8.94zm52.61 29.62a7.83 7.83 0 0 0 1.53 2.78h-20.58a6 6 0 0 0 -.63-2.78s-.31-.75-.75-1.85l-.19-.47h-11.85l-.19.5s-.34.91-.66 1.85a6.3 6.3 0 0 0 -.53 2.78h-16.23a8.2 8.2 0 0 0 1.47-2.78l9.73-26.84a5.93 5.93 0 0 0 .56-2.78h27.43a4.75 4.75 0 0 0 .59 2.78c.81 2 9.6 25 10.29 26.81m-23.24-9.17-2.88-7.51a16.59 16.59 0 0 1 -.63-2.13 12.54 12.54 0 0 1 -.56 2.13c-.09.31-1.31 3.6-2.72 7.51zm-131.68-17.67a5.83 5.83 0 0 1 .47-2.78h-21.39a5.83 5.83 0 0 1 .47 2.78v26.84a5.83 5.83 0 0 1 -.47 2.78h21.4a5.83 5.83 0 0 1 -.47-2.78v-26.84zm148.36-.22a4.27 4.27 0 0 0 8.54.22v-.22a4.17 4.17 0 0 0 -4.1-4.25h-.12a4.08 4.08 0 0 0 -4.25 4 .3.3 0 0 0 0 .28m7.66 0a3.41 3.41 0 0 1 -6.82.19v-.25a3.29 3.29 0 0 1 3.16-3.41h.25a3.35 3.35 0 0 1 3.41 3.28v.16m-1.41 2.57h-.84l-1-1.81h-1.09v1.81h-.75v-5.13h1.91a1.64 1.64 0 0 1 1.6 1.66 1.71 1.71 0 0 1 -.91 1.5zm-1.91-2.56a.86.86 0 0 0 .94-.84.88.88 0 0 0 -.84-.94h-1.13v1.81h1" fill="#0058a3"/></svg>