<svg fill="none" height="20" viewBox="0 0 20 20" width="20" xmlns="http://www.w3.org/2000/svg"><path d="m0 0v20h20v-20zm17.182 6.33109-8.65131 8.65131c-.12485.125-.29113.1937-.46825.1937-.17884 0-.34629-.0699-.47157-.197l-1.22143-1.2388c-.17182-.1743-.45173-.4562-.62393-.6284l-2.72462-2.7246c-.25953-.2594-.25953-.68148 0-.94101l1.23016-1.23004c.12513-.12525.29233-.19431.47037-.19431.17803 0 .34509.06906.47036.19431l2.72462 2.72465c.04153.0415.09722.0644.15687.0644.05966 0 .11522-.0229.15689-.0644l6.78084-6.78086c.1252-.12528.2923-.19431.4703-.19431.1781 0 .3453.06903.4705.19431l1.2302 1.23016c.2594.2594.2594.68149 0 .94089z" fill="#231f20"/></svg>