<svg height="18.1" viewBox="0 0 34 18.1" width="34" xmlns="http://www.w3.org/2000/svg"><path d="m27.21 10.37 6.79-10.21h-10.45l-.2.77c-.07.25-.14.5-.21.75s-.16.54-.25.79-.19.53-.29.81-.23.55-.34.81-.26.54-.4.79-.3.52-.45.75a8.3 8.3 0 0 1 -.51.69 6.39 6.39 0 0 1 -.57.61l-.08.07-.07.06-.07.06-.11.05v.06l-.07.05h-.07v-7.12h-9.11v2.05h.84v4.41l-.33-.32c-.14-.14-.26-.3-.4-.45s-.27-.35-.39-.54a7.24 7.24 0 0 1 -.37-.63c-.1-.23-.25-.48-.35-.73s-.21-.55-.3-.84-.17-.63-.24-1-.12-.67-.21-1.03l-.1-.92h-8.9l.32 1.27c.13.57.28 1.1.43 1.63s.32 1.05.49 1.55.35 1 .54 1.47.38.92.59 1.41.41.89.63 1.31.46.84.69 1.2.48.78.74 1.15.51.73.78 1.07.45.55.67.81.47.51.7.75.49.48.74.7.51.44.76.64.52.4.79.58.54.36.82.52.56.32.85.47.58.28.88.41l.78.31.8.28.74.19.69.12.68.1.64.07h.6 1 .41.36.31.25.19.13.06l.78-.18v-2.69l3.34 2.9h10.82z" fill="#bdbdbd" transform="translate(0 -.16)"/></svg>