<svg height="43.1" viewBox="0 0 163.1 43.1" width="163.1" xmlns="http://www.w3.org/2000/svg"><path d="m8.8 23.85c-4.5 0-7.8 2-8.1 6.2h5v-.1a2.58 2.58 0 0 1 2.8-2.3c1.9 0 2.8 1.1 2.8 3v.9h-2.3c-4.9 0-8.9 1.5-8.9 6.2v.2c0 3.8 2.8 5.5 6.2 5.5a6.13 6.13 0 0 0 5.2-2.5v2.2h5.1v-12.6c-.1-4.8-3.4-6.7-7.8-6.7zm-1.1 15.9c-1.8 0-2.6-.9-2.6-2.2v-.2c0-1.7 1.3-2.4 3.9-2.4h2.1v1.8c.1 2-1.6 3-3.4 3z" transform="translate(-.1 -.45)"/><path d="m28.6 39.55c-2.5 0-3.8-1.7-3.8-5.5v-.6c0-3.7 1.5-5.5 3.8-5.5 1.8 0 2.8 1.2 3.1 3h5c-.4-4.9-4-7.1-8.2-7.1-5 0-9 3.4-9 9.8v.2c0 6.4 3.8 9.6 9 9.6 5.1 0 8-3.1 8.4-7.3h-4.8c-.4 2.1-1.7 3.4-3.5 3.4z" transform="translate(-.1 -.45)"/><path d="m48.1 39.55c-2.5 0-3.8-1.7-3.8-5.5v-.6c0-3.7 1.5-5.5 3.8-5.5 1.8 0 2.8 1.2 3.1 3h5c-.4-4.9-4-7.1-8.2-7.1-5 0-9 3.4-9 9.8v.2c0 6.4 3.8 9.6 9 9.6 5.1 0 8-3.1 8.3-7.3h-4.7a3.58 3.58 0 0 1 -3.5 3.4z" transform="translate(-.1 -.45)"/><path d="m67.8 39.65c-2.3 0-3.7-1.3-3.9-4.7h12.2v-2.2c0-6.2-3.9-8.9-8.6-8.9-5.1 0-9 3.5-9 9.8v.4c0 6.3 3.7 9.5 9.1 9.5 4.9 0 7.9-2.7 8.4-6.3h-4.9a2.94 2.94 0 0 1 -3.3 2.4zm-.3-12.2c2.1 0 3.4 1.2 3.5 4h-7c.4-3 1.9-3.9 3.5-4z" transform="translate(-.1 -.45)"/><path d="m63.9 31h-.1z" fill="#008fff"/><g transform="translate(-.1 -.45)"><path d="m90.3 23.85a6.05 6.05 0 0 0 -5.7 3.15v-2.8h-5.2v18.8h5.2v-12a3.2 3.2 0 0 1 3.3-3c1.9 0 2.8 1 2.8 3.2v11.8h5.3v-12.55c0-4.6-2.3-6.6-5.7-6.6z"/><path d="m105.8 37v-8.9h3.6v-3.9h-3.6v-5.7l-5.2 2.2v3.5h-2.3v3.9h2.2v9.5c0 3.8 1.9 5.7 6 5.7a10.32 10.32 0 0 0 3-.4v-4.1a5.66 5.66 0 0 1 -1.8.3 1.8 1.8 0 0 1 -1.9-2.1z"/><path d="m123.9 35.95v.5a3.2 3.2 0 0 1 -3.3 3c-1.9 0-2.7-1-2.7-3.2v-12h-5.3v12.7c0 4.4 2.5 6.5 5.9 6.5a5.86 5.86 0 0 0 5.5-3.2v2.75h5.3v-18.75h-5.3z"/><path d="m138.3 27.65v-3.5h-5.2v18.8h5.2v-9.7c0-3.1 2.1-4.2 5.7-4.2v-5.2a5.92 5.92 0 0 0 -5.7 3.8z"/><path d="m163.2 32.65c0-6.2-3.9-8.8-8.6-8.8-5.1 0-9 3.5-9 9.8v.4c0 6.3 3.7 9.5 9.1 9.5 4.9 0 7.8-2.7 8.4-6.3h-4.9a3.35 3.35 0 0 1 -3.5 2.5c-2.3 0-3.7-1.3-3.9-4.7h12.2v-2.4zm-12.2-1.2c.4-3.1 1.9-4 3.6-4 2.1 0 3.4 1.2 3.5 4z"/></g><path d="m95 4.8 9.4 3.7-9.4 3.5v5l16.1-6.5v-4l-16.1-6.5z" fill="#008fff"/></svg>