<svg height="39.8" viewBox="0 0 108 39.8" width="108" xmlns="http://www.w3.org/2000/svg"><path d="m2 39.71h.07.08a3 3 0 0 0 .85.19h15.54l-10.19-10.22-4.05 4-1.9 1.93-1.08 1.08a2 2 0 0 0 -.52 1.31 1.83 1.83 0 0 0 1.2 1.71z" fill="#ff4f12" transform="translate(0 -.1)"/><path d="m.8 38a2 2 0 0 1 .51-1.32l1.09-1.07 1.89-1.9 4.05-4 1.84-1.83 13.82-13.77-14-14.01-7.94 7.9c-2.37 2.4-2.06 4-2.06 7.14v21.77a3 3 0 0 0 2 2.8 1.83 1.83 0 0 1 -1.2-1.71z" fill="#70f" transform="translate(0 -.1)"/><g fill="#101828"><path d="m89.32 25.46h-2.33l-2.79 2.82v-2.82h-1.97v7.76h1.97v-3.21l2.84 3.21h2.38l-3.67-4.16z"/><path d="m26.8 22.37h-5v11h2.07v-3.87h2.93c2.47 0 4.1-1.27 4.1-3.57s-1.63-3.56-4.1-3.56zm-.06 5.29h-2.85v-3.45h2.85c1.44 0 2.1.69 2.1 1.72s-.66 1.73-2.1 1.73z" transform="translate(0 -.1)"/><path d="m35.56 25.34a4.1 4.1 0 1 0 0 8.2 4.1 4.1 0 1 0 0-8.2zm0 6.36a2.25 2.25 0 1 1 2.24-2.25 2.18 2.18 0 0 1 -2.24 2.24z" transform="translate(0 -.1)"/><path d="m44.84 31.69a2.05 2.05 0 0 1 -2.07-2.25 2.07 2.07 0 0 1 3.87-1.19l1.69-1a3.58 3.58 0 0 0 -3.47-1.94 4 4 0 0 0 -4.09 4.1 3.94 3.94 0 0 0 4.09 4.1 3.85 3.85 0 0 0 3.55-2.08l-1.63-.89a2.2 2.2 0 0 1 -1.94 1.15z" transform="translate(0 -.1)"/><path d="m65.84 30c-.09 1.19-.33 1.46-.74 1.46a2 2 0 0 1 -.6-.08v2a2.63 2.63 0 0 0 .7.07c1.67 0 2.3-1.08 2.46-3.38l.19-2.71h2.22v6h2v-7.8h-5.9z" transform="translate(0 -.1)"/><path d="m60.25 25.34a4.1 4.1 0 0 0 -.09 8.2 3.74 3.74 0 0 0 3.57-2l-1.57-.78a2.22 2.22 0 0 1 -2 1.06 2.05 2.05 0 0 1 -2.13-1.94h6v-.66a3.68 3.68 0 0 0 -3.78-3.88zm-2.16 3.07a2.2 2.2 0 0 1 2.1-1.57 1.89 1.89 0 0 1 2 1.57z" transform="translate(0 -.1)"/><path d="m77.24 25.34a4.1 4.1 0 0 0 -.09 8.2 3.74 3.74 0 0 0 3.57-2l-1.57-.78a2.22 2.22 0 0 1 -2 1.06 2.05 2.05 0 0 1 -2.13-1.94h6v-.66a3.68 3.68 0 0 0 -3.78-3.88zm-2.16 3.07a2.2 2.2 0 0 1 2.1-1.57 1.89 1.89 0 0 1 2 1.57z" transform="translate(0 -.1)"/><path d="m49.02 27.18h2.32v6.04h1.97v-6.04h2.32v-1.72h-6.61z"/><path d="m93.33 25.34a4.1 4.1 0 1 0 4.24 4.1 4 4 0 0 0 -4.24-4.1zm0 6.36a2.25 2.25 0 1 1 2.24-2.25 2.18 2.18 0 0 1 -2.24 2.24z" transform="translate(0 -.1)"/><path d="m105.42 25.46-2.14 5.43-2.14-5.43h-2.58v7.75h1.88v-4.91l2.08 4.91h1.53l2.08-4.91v4.91h1.87v-7.75z"/></g></svg>